<?xml version="1.0" encoding="UTF-8" standalone="no"?>
<!DOCTYPE svg PUBLIC "-//W3C//DTD SVG 1.1//EN" "http://www.w3.org/Graphics/SVG/1.1/DTD/svg11.dtd">
<svg width="100%" height="100%" viewBox="0 0 3600 3600" version="1.1" xmlns="http://www.w3.org/2000/svg" xmlns:xlink="http://www.w3.org/1999/xlink" xml:space="preserve" xmlns:serif="http://www.serif.com/" style="fill-rule:evenodd;clip-rule:evenodd;stroke-linejoin:round;stroke-miterlimit:2;">
    <g transform="matrix(0.348665,0,0,0.348665,759.764,1173.53)">
        <g transform="matrix(1.3023,0,0,1.3023,639.347,-547.373)">
            <path d="M274.051,2586.86L274.051,1013.14L783.953,1013.14C977.179,1013.14 1103.13,1021.01 1161.82,1036.76C1251.99,1060.37 1327.49,1111.72 1388.32,1190.8C1449.15,1269.88 1479.57,1372.04 1479.57,1497.28C1479.57,1593.89 1462.03,1675.12 1426.97,1740.96C1391.9,1806.8 1347.35,1858.51 1293.32,1896.08C1239.29,1933.65 1184.36,1958.52 1128.54,1970.68C1052.68,1985.71 942.828,1993.23 798.982,1993.23L591.8,1993.23L591.8,2586.86L274.051,2586.86ZM463.437,1479.06C463.437,1479.06 897.383,1685.88 1083.36,1685.88C1197.51,1685.88 1290.18,1593.21 1290.18,1479.06C1290.18,1364.91 1197.51,1272.24 1083.36,1272.24C897.383,1272.24 463.437,1479.06 463.437,1479.06Z" style="fill:rgb(37,0,173);fill-rule:nonzero;"/>
        </g>
        <path d="M2609.06,1135.52L2609.06,772.04L3001.89,772.04L3001.89,1135.52L2609.06,1135.52ZM2609.06,2821.49L2609.06,1336.83L3001.89,1336.83L3001.89,2821.49L2609.06,2821.49Z" style="fill:rgb(37,0,173);fill-rule:nonzero;"/>
        <rect x="3110.47" y="772.04" width="392.835" height="2049.45" style="fill:rgb(37,0,173);fill-rule:nonzero;"/>
        <path d="M3597.9,2821.49L3597.9,772.04L3990.74,772.04L3990.74,1859.68L4450.68,1336.83L4934.38,1336.83L4426.91,1879.25L4970.73,2821.49L4547.14,2821.49L4173.88,2154.65L3990.74,2346.18L3990.74,2821.49L3597.9,2821.49Z" style="fill:rgb(37,0,173);fill-rule:nonzero;"/>
    </g>
</svg>
